<svg xmlns="http://www.w3.org/2000/svg" viewBox="532 18 216 172"><path fill="#3D6345" d="m98.248 103.896.188-.682c.63-2.255.95-4.597 2.836-5.656.494 1.492 1.027 3.256 1.587 4.703.476 4.074.622 6.522.665 10.626 3.655-3.289 5.599-5.053 10.212-7.086-2.396 5.474-2.918 6.903-7.535 10.788.748.465 4.245.745 6.042 1.429l.614.767c-1.704 2.415-4.704 1.29-7.619 1.463.309 2.278 1.844 1.892 1.676 3.756-2.796.842-3.314-2.66-5.233-2.219l-.092 1c-.14 1.407-.271 1.747-.708 3.072-.953-2.177-.273-2.961-1.61-4.148-1.603 1.523-2.134 2.52-4.38 2.031-.267-1.227.14-1.232 1.082-2.702-1.742-1.45-4.347-1.177-7.17-2.512l.123-.676c2.282-1.354 3.773-1.309 6.41-1.625a36 36 0 0 1-1.919-1.938c-1.69-1.862-4.147-4.573-4.047-7.149l.799-.386c2.956.863 5.166 3.335 7.372 5.473z"/><path fill="#3D6345" d="M95.837 160.12c-.25-2.841.485-11.989 3.044-13.561 1.392.646 1.11 1.067 1.86 3.05.725 4.079 1.229 7.069 1.081 11.254 2.782-3.052 4.321-4.635 8.196-6.374l1.28.194c-1.756 4.5-3.458 6.594-7.095 9.775 2.202.344 4.357.488 6.3 1.5l.344.876c-2.429 2.551-6.441.701-7.449 2.184l1.814 2.463-.145.57c-2.159-.025-2.764-.825-4.7-2.158l-.425 1.065c-.215.698-.495 1.365-.76 2.049l-.582-.04c-.187-1.245-.194-2.162-.896-3.194a95 95 0 0 0-2.95 2.13c-1.727.14-1.113.434-2.16-.369.402-1.025.546-1.204 1.183-2.067l.61-.818-1.034-.909c-3.098.297-4.249.692-6.682-1.264l.417-.761c2.409-.957 3.873-1.046 6.414-1.41-3.51-3.261-5.34-5.349-6.91-9.848 4.371.777 6.144 2.721 9.245 5.663"/><path fill="#3D6345" d="M137.055 175.804c2.781 4.134 2.527 9.53 2.58 14.271a45 45 0 0 1 3.468-3.029c1.752-1.385 2.72-2.173 4.862-1.909l.225.916c-1.265 3.589-3.263 5.033-6.056 7.525 2.223.27 5.739.42 7.028 2.467-2.057 1.438-6.072.52-7.79 2.69.689 1.109.848 1.16 1.048 2.421l-1.232.297c-2.45-.537-2.212-2.463-3.889-2.586-.544 1.599-.606 1.614-.675 3.381-.644-1.353-.177-2.074-1.45-3.126-2.766-.075-1.029 1.712-3.816 2.624l-1.099-.612c-.088-1.444.433-1.499 1.63-3.019l-.096-.628c-3.354.027-5.026.317-7.603-2.037l.38-.677c2.71-.756 4.107-.746 6.883-.923-4.232-4.099-4.896-5.039-7.216-10.445 4.333 1.982 6.432 3.115 9.848 6.367.061-5.523.343-9.004 2.97-13.968"/><path fill="#3D6345" d="M150.225 356.952c.151-7.772-1.896-30.215 2.519-34.874 3.873-1.698 34.165-1.601 39.28-.716l.869.72c1.903-1.832 7.035-1.311 8.23.414 4.757 6.866 2.783 26.456 2.81 34.377-.121 24.948-.405 51.07.082 75.986-4.417 3.965-8.581-.143-11.312-4.039l-1.353-1.097c-2.53-1.501-5.228-4.066-7.081-6.342l-.795-.952c-2.322-.642-4.168-2.887-6.14-4.579-8.088 6.565-15.994 13.384-24.034 20.018-2.589-1.714-3.021-3.163-3.138-6.141-.21-5.345.069-10.855.209-16.203-.273-1.376-.166-7.226-.163-8.984.185-15.775.032-31.797.017-47.588"/><path fill="#3D6345" d="M150.208 404.54c.557.197 1.097.267 1.366.609 1.89 3.244 3.18 4.547 5.902 7.157-2.744.405-3.911.473-6.49 1.667l-.615-.449c-.273-1.376-.166-7.226-.163-8.984"/><path fill="#3D6345" d="M184.269 421.381c2.603-1.003 3.185-1.368 5.515-2.929.256 3.199.424 6.227 1.566 9.271-2.53-1.501-5.228-4.066-7.081-6.342"/><path fill="#3D6345" d="M180.363 185.07c2.51 6.382 3.011 8.225 2.808 15.371 3.089-2.845 4.856-4.567 8.895-6.092-.111 3.671-2.679 6.305-5.236 8.727q-.67.633-1.351 1.256c2.132.345 5.025.587 6.774 1.676-.409 2.83-5.781 2.209-8.164 2.198.393 2.335 1.952 1.482 1.877 3.704l-.732.334c-2.037-.854-2.74-1.59-4.489-3.005a131 131 0 0 1-.607 3.888l-.575.149a72 72 0 0 1-.769-4.069l-.458.414c-1.492 1.33-1.704 1.688-3.528 2.236l-1.089-.337-.06-.835c.737-.755 1.674-1.498 1.995-2.396-3.515-.805-5.55.295-8.216-2.439 2.674-.776 4.387-1.305 7.184-1.701-2.821-2.699-4.644-4.215-6.012-7.968l.154-1.091c2.898-.557 6.4 2.987 8.511 4.862.293-7.067.542-8.449 3.088-14.882"/><path fill="#3D6345" d="M153.056 760.541c15.081-.081 37.02-.878 51.471-.144-.018 5.641-.395 23.747.59 28.667l5.587-3.018c5.329 4.238 8.508 7.162 13.013 12.269-1.747 2.76-6.169 9.085-6.27 11.943l.615.866c1.693 3.127 2.332 5.45 3.412 8.831 4.103.976 9.288 2.303 13.226 3.87.528 5.215.397 12.065.281 17.392l-13.152 3.291-4.386-1.827c1.369-1.734 3.311-3.668 3.444-5.621-2-.367-4.596 2.136-6.191 3.399.077-3.222.383-5.595-1.012-8.451l-.861-.44c-2.216 1.894-1.737 5.905-1.655 8.675-2.469-2.213-2.85-2.448-5.728-3.997l-.692-.378c1.178 1.977 3.385 5.03 3.205 7.164-1.196.275-.607.26-1.766.076l-.549.402.214 1.186c1.453.796 2.151.807 3.762 1.071l.22.622-.995 1.373.219.633c1.771.627 2.1-.211 3.448-1.572 2.976.907-.788 1.648 2.806 1.824l.789-.552-.386-1.463c1.658-1.167 3.287-1.773 5.314-1.344.576 1.441.451.752-.387 2.706a157 157 0 0 1-2.963 6.504c.953 1.994 2.673 5.878 3.821 7.576l2.032 4.594c-4.331 4.523-7.934 7.914-12.592 12.11-1.532-.992-4.34-2.944-5.831-3.756l-5.302-3.163c-3.926 1.746-6.593 2.935-10.664 4.196l-3.09 13.515q-9.325.204-18.652.003l-3.167-13.494c-3.495-.846-8.613-3.845-11.116-3.874-3.495 2.146-7.155 4.258-10.69 6.36-4.693-3.793-8.392-7.337-12.751-11.489 2.317-4.495 4.412-8.269 6.656-12.913-2.086-3.666-2.479-5.001-3.736-8.963-3.619-1.535-9.799-3.054-13.751-4.15-.172-5.792-.09-11.479-.033-17.269a118 118 0 0 1 13.211-3.563c1.483-3.556 2.857-6.815 4.527-10.284-2.496-4.507-4.479-7.664-7.302-11.939 4.012-4.146 8.67-9.026 13.185-12.547 3.952 2.478 7.107 4.303 11.232 6.478-1.062-7.011-.636-23.569-.61-31.385"/><path fill="#3D6345" d="M818.849 321.49c7.712.067 44.005-.976 48.407.334l.653-.019c3.336-.624 14.536-.363 18.544-.337l-.064 7.342c3.641-.075 14.928-.789 16.826 1.607 4.156 5.247-1.996 21.731-4.095 26.514-5.6 8.76-10.372 15.111-20.716 18.892-1.701.622-7.955 1.738-8.94 2.358-6.293 3.956-8.713 6.519-15.843 9.229q-.113 11.172-.084 22.345c14.408 2.356 10.528 4.475 18.957 14.397 2.358 2.776 1.332 4.91 1.054 8.283-9.387.028-21.785-.276-30.955.117-7.309-.213-15.381-.055-22.751-.066l.124-9.248c1.177-.46 3.134-1.026 4.394-1.431 2.703-9.628 5.707-10.094 14.992-12.011.186-7.099.129-14.471.168-21.592-2.564-1.757-12.16-7.466-14.871-8.631-8.235-3.537-13.513-4.321-20.876-10.483-9.978-8.351-14.441-19.612-15.604-32.392-.185-1.821.257-4.88 1.779-6.15 3.548-2.958 12.373-1.757 16.89-1.605l.123-7.374z"/><path fill="#3D6345" d="M879.787 355.538c1.002-.403.495-.385 1.521-.057-.49 1.733-.873 3.672-1.919 5.082l-.961.531-1.001-.459-.094-.865c1.137-1.561 1.468-2.059 2.272-3.823z"/><path fill="#3D6345" d="M411.501 102.732q18.067-.145 36.135-.096-.11 14.421.068 28.841c.078 5.203 1.132 18.093-1.317 22.154-9.869 8.704-19.919 19.915-29.235 29.389-6.687 6.8-14.847 16.215-22.716 21.439-1.698-.183-3.469-.514-5.105-.263-6.71-4.533-24.572-23.226-31.416-29.95-6.495-6.398-12.149-10.017-10.192-19.913 3.031-3.952 7.904-8.796 11.43-12.504 12.885-12.447 25.358-25.906 38.281-38.147 2.636-1.063 10.808-.893 14.067-.95"/><path fill="#3D6345" d="M153.269 95.14c14.863-1.59 21.003-.114 33.616 8.149 15.449 14.613 19.105 30.734 10.25 50.244-1.374 2.037-3.036 4.053-3.506 6.386 1.083 4.227 7.112 2.513 10.682 3.772l.461.593c7.438 9.404 43.086 34.106 13.337 39.062-5.491-2.858-9.066-7.113-13.42-11.514-2.042-3.338-10.852-10.031-13.387-13.832-3.03-4.541-.038-6.968-3.183-11.618-2.831-.585-8.417 4.278-11.423 5.564-8.095 3.462-14.939 3.306-23.525 2.368-12.75-2.756-19.898-8.859-27.228-19.387-9.715-19.693-6.636-37.454 9.95-52.271 6.803-4.439 9.557-5.693 17.376-7.517"/><path fill="#3D6345" d="m159.803 149.003 1.672-.932c-.1 4.525-.229 7.013-1.172 11.488-.459-4.127-.545-6.39-.5-10.556"/><path fill="#3D6345" d="M161.068 109.225c5.302 10.562 5.401 14.48 4.839 26.356 4.962-6.364 9.094-8.816 16.7-11.36-3.344 9.517-4.95 11.624-12.769 17.973 3.791.115 6.702-.334 9.527 2.067 1.456 5.055-9.401 4.31-12.207 4.152 2.304 1.942 3.038 2.557 4.987 4.945l-.177.642c-3.409 2.682-8.47-3.439-10.493-5.929l-1.672.932-.379-.046c-1.84 2.588-5.162 6.559-8.611 5.201l-.052-1.065c1.005-2.161 2.095-2.954 3.802-4.584-3.671.065-11.788.679-13.322-3.242 1.602-2.909 8.126-2.844 11.128-2.997-7.746-5.361-9.721-9.952-13.27-18.384 6.048 2.397 9.795 4.174 14.565 8.516l1.649 1.869.489-.102c.803-12.152-.048-13.238 5.266-24.944"/><path fill="#3D6345" d="M168.982 559.487c1.528-3.765 3.26-9.538 6.497-11.636 4.42-.144 7.14 8.343 8.802 12.032q4.893 11.287 10.049 22.455l10.694 1.23c5.434.529 23.783 1.599 27.67 4.322 1.398 2.568-.043 4.343-1.989 6.241-5.252 5.124-10.908 9.981-16.329 14.925q-4.548 4.369-9.053 8.782c1.363 6.086 10.104 36.764 4.957 39.024-2.078-.207-2.531-.561-4.469-1.489-7.477-5.203-20.539-12.123-29.021-17.474-5.049 2.122-19.809 11.506-24.865 14.777-3.027 1.759-7.382 4.927-10.711 4.277l-.602-.902c-1.005-6.904 5.019-30.4 6.798-38.322-3.092-3.478-5.667-5.873-9.231-8.81-4.985-5.117-15.218-12.409-18.419-18.714-.51-1.004-.011-1.539.414-2.366 3.271-2.086 26.8-3.693 32.381-4.244l5.626-.417c3.979-5.919 8.195-16.825 10.801-23.691"/><path fill="#3D6345" d="M224.61 92.454c2.586 5.721 2.965 7.465 2.782 13.916 3.398-3.079 4.756-4.076 9.264-5.529-.489 4.087-4.25 7.243-7.097 9.802 2.052.302 5.93.574 6.993 2.352l-.825.896c-2.719 1.106-4.512.485-7.392.887.697 1.076 1.371 1.814 2.199 2.776l-.105.706-.927.276c-1.768-.23-2.204-.864-3.544-2.059l-.484-.439c-.896.671-.827 1.874-1.136 3.327l-.628-.251-.027-3.2c-2.694-.112-1.857 1.985-5.14 2.496-.458-1.846 1.55-1.972 1.415-3.724-2.801-.348-5.92.333-7.798-1.934 1.393-1.77 4.426-1.764 6.806-2.094-3.696-3.326-5.842-5.277-6.842-10.161 3.901 1.712 5.917 2.676 9.162 5.697.189-6.055.276-8.193 3.324-13.74"/><path fill="#3D6345" d="M230.936 147.032c.295-6.392.351-8.413 3.032-14.232 2.43 6.152 2.696 7.75 2.62 14.446 3.743-3.235 5.05-4.408 9.865-6.146-2.224 4.67-2.889 6.316-6.742 9.95 2.009.293 4.162.357 5.747 1.525.341 1.219.413.651.082 1.745-2.732.572-4.611.333-7.307.926a64 64 0 0 1 1.729 2.808l-.441.639-1.338.025c-.966-.709-1.326-.99-2.137-1.836l-.65-.686-.55.294-.537 2.431-.679.326-.216-2.995-.407-.339c-1.114 1.408-1.027 1.384-2.53 2.332-1.86.101-1.455.461-2.364-.329.935-1.447 1.124-1.25 1.224-2.77-1.712-.978-2.594-.641-4.764-.662-1.739-.979-2.075-.742-2.613-2.174 1.359-1.278 4.344-1.399 6.169-1.48-3.723-3.756-4.865-5.859-7.17-10.638 4.076 2.187 6.654 3.521 9.977 6.84"/><path fill="#3D6345" d="m819.417 306.028 68.464-.023c10.265.007 24.525-.425 34.534.11l.549.645.031.559c-2.365-.84-16.814-.417-20.144-.386l-52.549.112c-6.018.007-26.953.663-30.885-1.017"/><path fill="#3D6345" d="M816.057 146.415c.329-6.4-2.865-26.482 7.115-26.974 15.221-.75 31.924-.998 47.157-.255 3.931 1.672 6.205 4.975 6.501 9.171.587 8.284.21 17.277.114 25.553.034 6.76.162 13.547.119 20.304-.058 9.104 1.66 18.113-5.62 24.954-12.563.09-25.056.463-37.618-.068-2.191-.093-5.094-.299-7.236-.148-6.241-.477-6.526-1.646-10.027-6.538-1.091-13.292 1.175-33.697-.505-45.999"/><path fill="#3D6345" d="M189.085 62.314c2.64 4.393 2.93 10.05 2.831 14.987 2.01-1.995 5.695-6.148 8.633-5.379l.125 1.18c-1.397 3.674-3.328 5.105-6.194 7.675 2.593.395 4.703.545 6.905 1.916l-.115.74c-2.695 1.276-4.384 1.764-7.37 1.432.395 1.298.922 2.438.656 3.72l-.884.277c-1.415-1.084-2.185-1.69-3.722-2.566l-.987 2.163.031.604-.327.156c-.387-1.49-.253-2.188-1.208-2.902-1.762 1.421-2.393 2.268-4.486 2.35l-.417-.668c.484-.82.918-1.542 1.441-2.343l.424-.64c-2.561-.178-6.433-.002-7.811-2.447 1.69-1.3 4.075-1.79 6.183-2.417-4.115-3.516-4.844-5.085-6.502-9.975 4.817 2.078 6.134 3.069 9.782 6.77.275-6.327.478-8.815 3.012-14.634"/><path fill="#3D6345" d="M188.954 659.922c3.998-.65 12.932-.198 15.767-.909l-.246.753c-2.723.547-12.42.212-15.521.156"/><path fill="#3D6345" d="M392.327 549.472c2.054-1.352 4.355-3.374 6.287-4.965 4.302 1.566 6.98 3.566 10.751 6.079a231 231 0 0 0 8.678-2.122c3.64 3.167 4.684 4.78 6.911 9.09 2.69.234 4.757.319 7.315 1.32.921.36 2.738 1.431 3.323 1.587 1.112 2.832 1.297 6.459 1.506 9.539 8.143 5.185 9.366 6.849 5.74 16.197 2.606 3.383 3.241 4.481 5.211 8.266-1.803 3.606-3.102 5.312-5.964 8.269 2.447 9.53 1.579 10.054-7.007 15.163-.766 9.493-1.684 9.536-11.079 10.452-2.486 4.371-3.085 5.631-7.343 8.569l-8.469-2.273c-7.435 5.961-9.037 6.473-16.265-.004-8.939 2.307-10.613 2.342-15.235-6.026-8.543-.815-9.534-.747-10.936-9.176-2.523-2.534-5.095-4.165-8.028-6.193l-.816-1.738q.372-4.119.56-8.25c-4.38-8.839-5.988-7.286-.428-16.88-2.384-6.432-3.52-8.245 1.651-13.322l4.409-2.877c.194-10.506 1.77-12.205 12.24-12.736 1.791-3.544 2.423-5.238 4.971-8.344 4.05-.038 7.977.181 12.017.375"/><path fill="#3D6345" d="M396.482 562.688c16.217-1.936 30.921 9.674 32.798 25.899 1.876 16.225-9.79 30.885-26.021 32.701-16.146 1.807-30.713-9.784-32.58-25.924-1.866-16.139 9.67-30.749 25.803-32.676"/><path fill="#3D6345" d="M375.1 634.422c4.278 4.305 5.03 5.577 11.373 5.182l3.254-.177c-1.476 4.466-5.4 17.749-7.877 20.538l-.778.038-1.077-.98c-3.761.95-7.796 1.748-11.298-.15l-1.963.376-.644-.558c.282-4.222 7.076-19.352 9.01-24.269"/><path fill="#3D6345" d="M424.327 634.794c2.525 2.16 8.705 19.966 10.312 24.348-4.44-1.369-9.061-2.464-13.688-2.919-.804 1.43-1.221 2.481-2.527 3.469-1.016-1.553-6.868-17.799-8.033-20.928 3.931.701 5.886.733 9.901.681z"/><path fill="#3D6345" d="m404.15 641.752 1.826.184c2.669 2.394 7.61 16.09 8.815 20.112.869 2.898.556 3.312-.844 5.745l-.568.03c-.608-.518-1.106-1.053-1.392-1.817-1.984-5.3-9.47-19.344-7.837-24.254"/><path fill="#3D6345" d="M393.37 641.213c2.005.888 2.196.556 3.051 2.065-.56 5.528-6.473 18.487-8.962 24.012-.682.492-.261.344-1.324.193-2.954-3.596 5.361-21.572 7.235-26.27"/><path fill="#3D6345" d="M615.163 777.314c9.187 2.287-.244 24.195 5.076 27.943 1.151.125 2.965.258 4.038.495l1.362-.055c2.534-.457 9.409-.256 12.163-.274 8.632-.056 17.692.399 26.286-.173l1.551.385c6.055-.852 13.348.224 19.909-.541 3.132 1.477 2.89 2.441 2.801 5.787-.403 4.91.05 39.2-.496 40.078l.313 1.252c.402 2.507.27 3.613.146 6.137-8.34.211-67.042-1.242-69.199.434l-.708 2.035c.425 1.13.444.591.064 1.617 1.279 2.53.905 19.544-1.197 22.155-1.283.468-.685.503-1.862.278-2.833-3.512-20.313-18.692-24.773-22.81-8.409-7.185-19.627-17.995-27.646-25.79-1.359-1.537-3.402-3.488-4.883-4.995l5.026-5.181c5.012-4.951 10.734-9.826 15.937-14.859 2.755-1.392 19.787-17.966 23.502-21.421 1.089 1.629 2.502 3.406 3.661 5.071-1.385.521-2.476.799-3.592 1.766 1.852 1.74 1.767.282 4.567 1.528l-.993 1.802.274.565 1.037-.058c1.199-1.147.732-.972 2.151-1.524.848 1.672.242 1.264 1.554 1.932.488-1.27.163-.89 1.099-1.732 1.542 1.424.764 1.243 2.398 1.462l.23-.497-1.834-1.758c1.03-1.07 3.036-1.341 4.581-1.722-.723-.84-1.84-.815-3.198-1.133-.148-1.316 2.308-2.417 3.308-5.038l-.578-.465c-1.862.558-3.624 2.057-5.236 3.228-.052-2.214.134-5.69-1.34-7.292l-.734.356c-1.079 2.34-.926 4.284-1.037 6.883-2.172-1.72-3.2-2.478-5.586-3.864 3.309-3.16 9.193-8.545 11.858-12.007"/><path fill="#3D6345" d="M617.208 760.058c13.406-.021 27.453-.252 40.808.013-3.829 1.734-36.963 1.115-40.808-.013"/><path fill="#3D6345" d="M512.087 760.229c9.633-.613 33.622-.524 43.512-.109-.115.092-.218.2-.344.276-1.892 1.148-38.393.465-43.168-.167"/><path fill="#3D6345" d="M666.035 509.389c16.1.067 34.999.537 50.957-.191l.066 50.371c-.017 15.941.446 34.181-.025 49.939.022 16.344.446 33.949.082 50.142-16.803-.061-34.238-.286-51.024.336-.084-3.364-.185-6.178-.498-9.527-.658-12.886-1.71-23.734-16.964-27.836-21.978-5.477-4.313-13.89-3.154-23.392 2.928-23.987-6.266-45.389-34.355-33.465-9.685 4.111-10.492 24.35-9.017 32.484 3.679 13.982 17.279 18.26-4.312 24.876-18.755 5.746-12.274 16.376-16.26 25.95l-.785.283c-5.638-1.994-12.445-13.869-15.603-19.148a59 59 0 0 1-2.621-6.281c-5.339-15.619-4.927-33.844 2.408-48.761-3.091-2.589-2.027-11.369-1.953-15.337 3.673.062 7.846-.005 11.41.656 24.02-26.847 62.953-29.157 91.002-7.074 1.245-3.489.768-37.713.646-44.025"/><path fill="#3D6345" d="m621.642 566.712.579-.006.065.869c-2.265 2.683-.969-.398-4.066 1.328l-.127.828 1.683 1.026c-1.223 1.013-2.608 1.92-3.273 3.303 1.315.449 2.812-.703 5.027-1.057.187 2.126.063 4.136 1.096 5.893 1.79-.865 2.208-4.356 3.958-5.794 1.648-1.355.759.645 2.65-.609-1.129-1.006-1.373-.955-1.845-2.261 1.621-.948 1.263-.413 2.068-1.844-1.671-.564-2.72.897-4.346-.042l-.212-1.057c1.945-.876 5.883.126 7.853.948 11.944 4.98 5.598 18.051 9.935 27.176-2.295 5.944-9.378 15.803-9.239 20.357.284 9.301 17.577 9.538 23.478 15.968 5.104 5.563 4.52 15.132 4.667 22.379-3.55 2.14-6.093 3.586-9.811 5.387-19.625 9.206-49.039 9.285-65.842-5.614-.018-6.049-.189-13.254 2.127-18.955 3.844-9.463 21.109-8.209 25.443-16.047 2.553-4.618-3.14-11.87-5.2-15.86-1.477-2.864-2.097-4.312-3.24-7.524l.486-2.25c2.954-13.298-3.329-24.228 16.086-26.542"/><path fill="#3D6345" d="M806.326 779.707c1.516-1.424 3.342-2.614 5.05-3.822 3.781 1.943 4.998 3.26 7.819 6.246 7.462 7.921 16.995 17.571 24.968 24.917l23.316-23.362c1.864-1.944 5.194-6.045 7.574-6.786 1.593-.495 2.612.368 4.155 1.11l2.161 2.162c1.855.865 4.285 3.478 5.861 4.994l2.685 2.748c13.56 12.338 9.529 11.947-1.81 23.934-6.087 6.351-12.75 13.589-19.181 19.469 6.772 7.296 19.822 21.043 27.011 27.419-4.076 1.584-5.833 2.533-9.311 5.49-.071-6.921-.342-8.545-2.647-14.966-2.642 6.256-2.848 7.759-3.504 14.571-2.027-1.659-5.029-4.776-7.734-4.252-1.206 2.765 2.864 6.345 4.738 8.27-2.318.448-5.135.752-7.058 1.957l-.117.665c1.591 1.231 5.975 1.488 8.142 1.717-.006 2.577-2.375 2.194-1.402 4.219 1.713.129 3.019-1.221 4.672-2.382a44 44 0 0 0 1.043 3.504l.697.264c.713-1.221.602-2.365.67-3.806l.439-.171 3.185 3.19c-3.375 3.351-7.171 7.225-11.107 9.843-1.544-1.096-3.368-2.301-4.744-3.565-8.875-8.958-18.591-19.224-27.864-27.498-6.311 5.938-26.769 28.901-33.134 29.937-3.046-.924-9.639-6.052-9.199-9.321 1.104-.95.514-.816 1.703-.814l.434 2.287.454-.03c.402-1.101.507-1.696 1.181-2.636 1.608 1.1 3.08 2.502 4.771 2.633.669-1.923-.908-1.399-1.216-4.051 2.363-.065 6.486.081 8.224-1.34l-.17-.72c-2.166-1.39-4.2-1.473-6.774-1.901 4.256-3.614 4.778-4.896 7.27-9.743-4.492 1.885-6.194 3.119-10.006 5.921-.031-6.481-.887-8.46-2.872-14.678-2.664 6.08-2.602 7.779-3.063 14.328-3.413-2.333-5.186-5.252-9.179-5.192l-.691.645-1.097-.235c-1.512 1.132-.975.44-1.737 2.103l-.189-.94c-1.677-1.061-17.445-.326-20.703-.249.383-16.329.093-33.908.044-50.308 4.82.104 27.757.794 30.785-.613-4.53-4.206-12.625-9.149-7.987-15.408l.635.429c3.849 2.058 4.099 1.625 8.432 2.272 1.128 1.306-1.459 1.39-1.319 4.098l1.122.231c2.453-.683 2.214-2.019 4.16-3.202.245 1.567.441 2.302.847 3.805l.573-.146.283-2.695c1.982.016 2.967 1.724 5.239 1.935-.26-1.64-.773-2.02-1.731-3.504 2.568-.322 6.124-.402 7.86-2.267l-.361-.847c-2.045-1.157-4.003-1.184-6.368-1.491 4.333-3.066 5.929-6.223 8.257-10.78-4.968 2.286-6.537 3.747-10.839 7.134-.183-4.741-.231-6.157-1.346-10.726"/><path fill="#3D6345" d="M867.479 783.686c1.864-1.944 5.194-6.045 7.574-6.786 1.593-.495 2.612.368 4.155 1.11-2.359 3.366-2.124 7.196-2.37 11.331-2.831-2.074-5.597-4.504-9.037-5.105z"/><path fill="#3D6345" d="M881.369 780.172c1.855.865 4.285 3.478 5.861 4.994l-4.606 4.33c-.419-3.388-.537-5.909-1.255-9.324"/><path fill="#3D6345" d="m896.395 859.527 3.531 2.548c-2.409 7.806-3.68 6.947-10.493 6.225 3.654-3.091 4.761-4.76 6.962-8.773"/><path fill="#3D6345" d="M359.697 340.028c15.476-13.578 28.46-5.932 40.487 6.472 2.684-3.491 6.051-6.119 9.486-8.819 19.819-10.114 36.877-.578 39.162 20.695-.226 8.557-1.19 12.501-4.833 20.488l-4.523-1.552c1.365-1.341 2.937-2.588 3.532-4.347l-.516-.514c-1.846.27-2.789 1.136-4.342 2.19-1.284-1.565-.298-4.811-1.895-7.527l-.759.087c-1.238 2.2-1.21 5.69-1.099 8.187l-.517-.5c-1.275-1.215-1.802-2.012-3.493-2.299l-.8.36c.599 2.542 1.304 1.543 2.567 3.981-1.381.893-1.484.762-3.105 1.169l.166.699c1.716.626 2.109.627 3.865.819l.295.587-.849 1.287.469.636c3.02-.532.563-1.603 2.924-1.319l-.416 1.38.602.057.956-1.599c1.199.618.756.329 1.626 1.518l.873-.17.048-.456c.087-.756.051-.471.236-1.525 1.385-.524 2.345-.407 3.818-.406-7.423 12.556-27.952 33.457-41.662 40.417-4.762 2.418-15.511-8.239-19.453-11.735-7.424.48-17.071.209-24.67.192-.17-9.855-.3-18.143.024-27.986l-.48-.996.29-.464c2.225.167 2.102-.177 3.713.886l-.123 1.812.65.572c3.828-.334 2.356-2.34 5.543-.185l.836-.212a17 17 0 0 0-.617-1.919l.756-.469c1.44-.018 2.622.183 3.707-.651l-.414-.512c-1.487-.47-1.266-.302-2.558-1.081.117-1.304 2.597-4.542 3.588-6.335-1.924 1.008-3.219 1.937-5.269 2.893-1.546-1.399-.653-4.428-2.254-6.58-1.774 1.299-1.025 4.356-2.857 6.342a255 255 0 0 1-4.686-2.025c1.101 1.726 1.847 2.638 2.387 4.582-.391 1.639.074 1.069-1.129 1.961-5.298-1.76-6.733-12.877-7.195-17.744.515-8.993 1.637-13.462 7.908-20.342"/><path fill="#3D6345" d="M563.104 51.974c33.478.34 69.455.46 102.875-.092l.046 24.928c.003 4.413.194 11.417-.443 15.608 2.274 2.152 4.397 4.147 6.541 6.435-9.138 1.785-24.106 5.948-33.042 8.844-6.029-1.948-26.586-9.565-31.208-9.236-6.587.47-25.736 6.362-33.426 8.357l.006 51.326c-.006 6.968-.372 22.284.469 28.69l33.405-9.246c9.426 3.603 20.603 7.673 30.334 10.669 10.924-3.562 22.479-5.97 33.279-9.972q.304-39.887-.069-79.772c12.934 16.285 19.518 30.212 16.938 51.983a65 65 0 0 1-.617 3.964c-3.815 17.764-9.619 28.984-23.82 41.053q-.95.654-1.916 1.285c-16.809 11.029-33.587 15.119-53.479 10.883-22.686-4.83-33.607-16.385-45.589-35.069-2.306-5.237-4.649-13.002-5.571-18.626-1.53-17.139-.038-24.675 6.453-40.318 2.467-4.486 4.136-7.323 7.251-11.34-2.484-.051-5.903.156-8.457.241.393-16.366.019-34.105.04-50.595"/><path fill="#3D6345" d="M819.396 546.343c11.519-2.385 22.404-1.199 32.395 5.313a39.68 39.68 0 0 1 17.482 25.515c2.165 10.641.006 20.622-5.337 30.032-1.714 3.019-3.201 3.725-1.574 5.864 2.528 1.334 9.117 1.595 10.074 2.44 9.004 7.955 20.165 17.594 26.235 27.931 2.555 4.351-2.536 10.492-7.073 11.72a8.74 8.74 0 0 1-6.584-.802c-3.637-2.069-24.731-23.786-27.293-28.235.404-3.31 1.596-7.102-2.31-8.384-12.489 6.688-20.873 11.545-35.984 7.861-12.852-5.145-14.004-5.448-24.089-16.117-10.505-16.993-9.997-33.103 1.734-49.312 7.644-7.824 11.872-10.825 22.324-13.826"/><path fill="#3D6345" d="M829.269 576.524c.082-2.501.748-6.603.348-8.515l-.657-.415c-1.92.997-1.915 1.432-3.586 1.148.041-.766.096-1.395.181-2.157-1.185-.674-1.516-.634-2.876-.906l-.282-.679c1.152-.528 1.4-.568 2.645-.868l.303-.812q-1.162-1.8-2.397-3.551l.333-.736c2.185-.004 3.347 2.497 4.843 2.54.688-2.081 1.056-5.517 1.972-6.321 1.179 1.393 1.174 4.604 1.402 6.771 1.637-1.405 2.341-2.344 4.366-2.646l.708.43c-.547 2.728-2.791 2.961-2.548 4.53l2.5.504.315.584c-2.23 2.176-4.025 2.034-4.867 4.147.35 2.159.603 4.192.858 6.364 2.132-.936 4.566-2.078 6.719-2.881-1.098 1.128-4.404 4.225-4.815 5.403q1.344.688 2.726 1.294l-.424.758-1.993.545c-.055.919-.106.453.189 1.394l-.836.233a39 39 0 0 1-1.763-1.533c-.701 1.095-.525 1.173-1.618 1.827-2.253-2.433-4.89-1.173-6.125-3.018.641-1.475 1.43-1.679 2.868-2.455z"/><path fill="#3D6345" d="M807.738 578.628c.329.116.835.483 1.156.689.823 2.34.775 5.386.903 7.935 1.721-1.606 3.394-3.801 5.84-3.068l.082 1.165c-.931 2.174-2.199 3.005-3.978 4.582 1.599.219 3.847.308 5.011 1.239-1.871 2.131-3.744-.751-6.432 3.531l-.732.16-1.624-1.84-.639-.328c-.487 1.216-.158.689-.943 1.607-2.024-.711-5.308-1.529-6.636-3.167.988-1.484 1.203-1.072 3.573-1.647l.117-.592c-1.337-1.642-3.025-3.426-3.488-5.452l.483-.224c2.224.711 3.528 1.979 5.384 3.425.135-3.427.25-5.034 1.923-8.015"/><path fill="#3D6345" d="m845.118 592.895 2.937-3.981c-.75 3.364.015 6.025.513 9.501 1.498-1.281 3.074-2.889 4.918-3.372l.584.814c-.283 2.146-2.581 3.664-4.277 5.141l.422.762c1.839.245 2.147.295 3.903.852l.152.792-1.057.876c-1.548.31-4.165-.017-4.678.191.872 1.059.711.669 1.174 1.892l-.927.265-2.027-1.4-.361.086-.485 1.389-.604.058c-.519-1.022-.196-.566-.957-1.375l-1.71.312c-1.23-.627-3.028-1.912-3.53-3.249 1.947-1.642 2.459-.152 3.503-1.442-1.675-1.912-2.664-2.683-3.55-5.035l.419-.607c1.832.116 3.608 2.068 5.095 3.361.385-1.454.45-4.24.543-5.831"/><path fill="#3D6345" d="m831.088 599.695.891.616c1.105 2.207 1.356 4.776 1.784 7.25 1.532-.823 2.923-1.829 4.633-1.235-.49 1.423-1.611 2.63-2.558 3.844.932.865.935.883 1.622 1.958-1.891 2.907-4.284.759-6.162 2.635-.894-1.075-.483-.788-1.795-1.302l-1.5 1.196-.435-.19.122-.861.145-.915a15 15 0 0 0-1.899-.309l-.68-.069-.187-.725c1.024-.647 1.575-.875 2.309-1.829-1.668-2.153-2.766-3.777-4.222-6.029 3.024 1.475 3.895 2.1 6.576 4.054.299-3.543.381-4.625 1.356-8.089"/><path fill="#3D6345" d="M810.227 605.823c-1.582-1.782-2.921-2.802-2.603-5.265l1.06-.128c.767.438 1.429.811 2.222 1.21l.607.3-.012-.002c2.51-2.49.039-4.166 2.089-6.776l.558.213c1.066 2.233.986 4.785 1.149 7.319l5.876-3.901c-1.115 1.812-2.814 4.07-2.953 6.079.875 1.036.484.704 1.741 1.292l.13 1.1c-1.314.218-1.63.183-2.977.148l-.108.411 1.604 1.472c-1.557.409-2.159-.32-3.819-.742-.523 1.035-.389.668-.583 1.802-.999-.583-.696-.445-1.457-1.455-1.141.453-.626.135-1.544.954l-.62-.357-.122-1.416c-1.386-.297-1.821-.223-3.225-.195l-.588-.616c1.032-1.118 1.805-.979 3.575-1.447"/><path fill="#3D6345" d="M810.227 605.823c-1.582-1.782-2.921-2.802-2.603-5.265l1.06-.128c.767.438 1.429.811 2.222 1.21l.607.3-.012-.002c2.51-2.49.039-4.166 2.089-6.776l.558.213c1.066 2.233.986 4.785 1.149 7.319-3.576 1.963-2.621-.488-3.502 1.161l.327 1.396c-1.211.734-.599.516-1.895.572"/><path fill="#3D6345" d="M846.029 563.179c2.354 1.819 2.018 4.572 2.087 7.316l.524.228c1.51-.94 2.507-1.663 3.931-2.736l.763.172c-.318 2.469-3.145 3.646-2.936 5.639 1.733.23 1.592.006 2.96.864-1.67 1.61-3.554.567-5.842 2.549l-.211.373c-.838-.286-.471-.121-1.343-.614l-.656-.379c-2.014.382-3.398 1.071-4.425-.907 1.915-2.838 1.263.469 2.802-1.895-1.565-.408-1.454-.175-2.563-1.145-.357-1.989-.484-2.661-.502-4.658l.624-.199 3.575 2.595c.324-2.89.591-4.391 1.212-7.203"/><path fill="#3D6345" d="M814.067 562.734c1.683 1.471 1.638 4.882 1.897 7.253 1.501-1.14 2.493-2.194 4.317-2.38l.551.582c-.652 2.824-2.447 3.494-2.489 4.953q1.462.584 2.934 1.137l-4.5 2.389-1.741-1.423c-1.195 1.253.666.862-1.325 2.026l-.678-1.545c-1.539-.323-4.291-.686-4.875-2.274 1.574-.602 1.677-.32 2.35-1.463a459 459 0 0 0-4.138-5.598c2.209 1.051 3.157 2.005 5.549 2.8l.646-.702c.338-2.431.537-3.507 1.502-5.755"/><path fill="#3D6345" d="M827.597 583.817c1.355 1.457.958 4.766.939 6.886 2.026-1.068 4.338-2.112 6.423-3.109-1.318 1.717-2.858 3.475-4.262 5.141.83.966 1.625 1.635 2.566 2.477l-.197.597c-1.599.22-3.442.15-5.072.143l-.586 1.1-.616-.304c-1.417-.949-5.353-.876-6.031-3.028l2.46-.266c.302-1.579-2-2.005-2.307-4.531l.579-.485c1.987.154 1.882.534 3.812 1.849l.45-.272c.411-2.77.434-3.737 1.842-6.198"/><path fill="#3D6345" d="M848.931 583.543c.502-1.545 1.091-4.424 2.144-5.155.785 1.308.762 1.925.973 3.416l-.271 1.226c1.391.226 4.103-1.628 5.694-2.468-1.346 2.136-1.632 2.698-3.382 4.443l-.154 1.138 2.483 1.557-.075.602c-1.89.549-2.207.622-4.156.836-.7 1.079-.293.607-1.205 1.432-1.089-.902-1.527-1.531-2.927-1.656-1.682-.407-2.586-.422-3.64-1.622 1.832-1.182 1.338-.392 1.762-2.298-.45-1.861-1.819-3.037-3.132-4.475 1.942.975 3.999 1.965 5.886 3.024"/><path fill="#3D6345" d="M827.758 577.503c-1.415-1.104-2.056-1.422-2.85-3.049l.456-.507c1.947.489 2.37 1.148 3.905 2.577z"/><path fill="#3D6345" d="M361.86 811.975c.133-1.72.413-3.169.819-4.853a38.65 38.65 0 0 1 17.534-23.718c8.953-5.329 19.726-6.529 29.766-4.018 17.049 6.286 23.852 14.354 27.764 32.012 1.972 20.868-11.772 38.801-23.082 55.12-4.635 6.687-9.802 14.163-14.802 20.515-6.057-8.964-11.807-16.908-18.11-25.632-7.859.344-15.873.272-23.752.282l-.056-30.818c-.005-4.814-.275-14.158.597-18.419 1.145-.909 1.403-.536 3.322-.471"/><path fill="#3D6345" d="M400.151 796.834c3.19 4.544 3.417 14.642 3.363 19.93 4.466-4.851 7.434-6.268 13.333-8.838-3.68 7.007-4.263 8.565-10.007 13.968 2.562.159 6.557-.112 7.824 2.427-2.12 2.996-6.27 1.375-8.722 2.646 1.026 1.387 1.695 2.021 1.974 3.725l-.71.578c-2.834-.318-4.262-2.313-6.13-4.415-.223 2.267-.145 5.206-.872 7.262l-.758-.712a317 317 0 0 1-1.166-6.103c-1.992 1.766-3.922 4.353-6.624 3.542-.043-2.177 1.984-2.899 1.865-4.294-2.672-.134-7.759.33-8.278-2.693 1.675-1.853 5.574-1.804 8.049-1.945-6.108-4.401-7.849-7.916-10.646-14.54 6.406 2.746 8.646 4.535 13.452 9.449-.205-8.116.54-12.779 4.053-19.987"/><path fill="#3D6345" d="M564.211 344.852a40.8 40.8 0 0 1 13.909-11.608c12.045-6.136 23.893-5.979 36.478-1.921 11.426 5.191 18.663 10.703 23.117 22.863q.524 1.417.925 2.871c7.943 32.344-21.447 52.099-51.439 46.418-9.983 5.983-12.297 7.514-23.598 10.4-.56-.326-.778-.604-1.262-1.056.319-1.938 1.17-2.425 2.547-4.112 3.608-5.51 4.11-7.359 6.001-13.809-11.392-11.353-16.232-21.145-12.57-37.443 1.67-5.221 3.417-7.797 5.892-12.603"/><path fill="#3D6345" d="M854.932 105.299c-.041-3.08-1.045-8.8 2.566-9.51 3.578 1.777 1.84 9.467 2.152 13.503-.222 2.832 1.693 3.761 1.301 5.88-3.941.672-10.595-4.285-17.226-3.438-5.163.659-8.348 5.209-11.404 3.395-.307-1.679.176-2.455 1.215-3.977l.564-.813c.856-3.898-1.124-11.836 1.661-14.21 1.722-.255.948-.382 2.429.174.832 3.147.318 7.53.764 11.06 2.919.12 13.867 1.04 15.878-.431z"/><path fill="#3D6345" d="M836.682 86.76c5.509-.112 21.403-1.584 24.659 2.24.425 1.983.441.997-.239 3.056-1.298 1.077-2.254.862-3.977.873-5.807.066-20.919 1.203-24.646-1.892-.651-1.927-.474-1.271.087-3.543 1.514-.957 2.018-.632 4.116-.735"/><path fill="#3D6345" d="M674.232 352.933c-4.866-.604-27.379 1.491-27.843-3.346 3.34-3.238 27.14-2.271 33.481-2.31 2.836.197 8.216.034 9.306 3.274-2.421 3.399-11.144 2.155-14.944 2.382"/><path fill="#3D6345" d="M665.261 104.536c.745-.012 1.155.1 1.895.218 1.423 2.886.446 62.933.361 70.905-5.888 2.148-21.258 6.406-27.393 7.786l-.126-7.32c-.046-11.479-.36-23.18.313-34.618.147-2.481 5.41-6.577 3.634-10.113-2.221 1.78-2.302 4.808-4.001 5.596-.728-4.14-.064-21.113.068-25.991 8.216-1.76 17.069-4.287 25.249-6.463"/><path fill="#3D6345" d="m605.213 102.559.577.111c1.224 1.827.287 33.114.47 37.813.061 1.574-1.45.224-3.13.955-.111 1.783-.297.978.523 2.517.638.3 1.503.611 2.05 1.044 1.7 1.345.809 25.385.799 28.906-7.99 2.77-17.486 4.869-25.869 7.349l-1.056.121c-1.982-2.899-.6-30.635-1.099-36.018-.124-1.338 1.19-1.968 2.188-2.718.453-1.669.559-.929-.026-2.315l-1.544-.042c-1.237-1.284-.666-26.465-.648-30.349a1694 1694 0 0 0 26.765-7.374"/><path fill="#3D6345" d="M610.497 102.431c8.389 2.751 16.691 5.79 25.116 8.468l-.075 15.146c-.035 2.23.013 5.302-.154 7.455.4 3.032.654 10.167.295 13.404-.07.632-2.628.778-4.481 1.718-.792 1.539-.658.74-.365 2.487 2.532.893 2.458-1.2 4.711-.059.476 3.005.595 16.533-.041 19.608-1.607-.088-2.113-2.26-4.688-2.841-1.087 1.223-.696.493-.833 2.431 2.025 2.323 3.001.803 5.507 3.008.652 2.316.473 7.398.479 10.019-8.38-2.823-16.878-6.268-25.407-9.194-.038-3.679-.483-22.735.363-24.838 1.684.202 1.909.292 3.636.081l.383-.838c-.705-1.857-3.02-3.861-4.503-5.358q-.082-20.348.057-40.697"/><path fill="#3D6345" d="m634.503 125.127 1.035.918c-.035 2.23.013 5.302-.154 7.455l-.176-.001c-1.324-1.074-4.087-1.403-5.882-1.771 2.682-2.306 4.106-3.293 5.177-6.601"/><path fill="#3D6345" d="M412.65 875.971c6.757 1.269 17.352 2.708 22.125 8.215 2.075 2.404-.676 5.393-2.949 6.362-17.712 7.554-39.96 6.078-58.343 1.873-3.312-.757-7.278-2.671-8.91-5.651-.173-5.339 6.44-6.936 10.633-8.317 4.449-1.003 7.473-1.639 11.974-2.175 1.304 1.31 2.309 2.841 3.384 4.347-8.298.867-13.036 1.545-20.472 5.312q1.73.71 3.51 1.283c15.026 5.003 42.227 5.653 56.679-1.633-5.05-2.268-12.721-4.163-18.278-5.261l-.758-.146c-.278-1.391.682-2.673 1.405-4.209"/><path fill="#3D6345" d="M132.933 63.288c3.082 1.764 3.165 11.186 3.137 14.48 2.086-2.004 5.881-6.115 8.844-5.555l.175.993c-1.433 3.785-3.43 5.353-6.349 8.033q1.281.063 2.558.18c1.645.163 3.31.4 4.389 1.71l-.416.844c-4.081 2.247-4.196 1.297-8.113 1.347 1.06 1.166 1.719 1.663 2.085 3.196l-.704.45c-2.779-.56-1.964-1.805-4.469-2.716l-.83 3.078c-.072.2.012.065-.484.398a38 38 0 0 0-.406-2.94l-.652-.16c-1.615 1.383-2.459 2.382-4.445 2.272-.363-2.047 1.012-1.087 1.683-3.684-2.258-.144-7.084-.041-8.209-2.041 1.617-1.722 4.743-1.679 7.17-1.874-4.552-3.813-5.479-5.437-7.545-10.73 4.842 2.03 6.33 3.164 10.023 6.738-.197-6.335.169-8.26 2.558-14.02"/><path fill="#3D6345" d="M646.374 363.064c5.355-.24 39.468-.78 41.817.939.72 1.394.43 1.99.138 3.549-5.862.271-36.862.897-41.278-.795-.992-1.557-.641-1.5-.677-3.693"/><path fill="#3D6345" d="M646.387 378.082c5.446-.407 21.774-1.576 25.643 1.643.659 1.879.519.878-.061 3.148-6.056.195-20.887 1.361-25.414-1.73-.843-1.719-.607-.767-.168-3.061"/><path fill="#3D6345" d="M858.962 202.079c3.209-.198 8.023-1.096 10.157 1.473.008 2.091-.115 1.606-1.272 3.701-4.485 2.49-9.011.226-8.885-5.174"/><path fill="#3D6345" d="M822.973 201.905c3.329-.122 7.847-.977 10.227 1.441.118 2.104.02 1.536-1.101 3.694-5.539 3.3-7.883.153-9.126-5.135"/><path fill="#3D6345" d="m790.669 860.876 1.097.235.691-.645c.65 4.296 3.898 5.618 5.124 9.367-5.417 1.204-7.546-2.006-8.649-6.854.762-1.663.225-.971 1.737-2.103"/><path fill="#3D6345" d="M795.259 790.506c1.862 1.682 2.863 2.49 4.923 3.919-2.875.013-6.504-.387-8.665 1.465l-.635-.429c1.442-1.7 2.807-3.37 4.377-4.955"/></svg>
