<svg width="1024" height="1024" viewBox="0 0 1024 1024" fill="none" xmlns="http://www.w3.org/2000/svg">
  <rect width="1024" height="1024" rx="232" fill="#121614"/>
  <path d="M512 212C655 212 784 298 784 438V552C784 724 662 839 512 878C362 839 240 724 240 552V438C240 298 369 212 512 212Z" stroke="#F3EBDD" stroke-width="52"/>
  <path d="M336 410C376 316 449 272 512 272C575 272 648 316 688 410" stroke="#5E866E" stroke-width="46" stroke-linecap="round"/>
  <path d="M512 468L528 506L570 510L538 537L548 580L512 559L476 580L486 537L454 510L496 506L512 468Z" fill="#C8A66A"/>
  <circle cx="512" cy="524" r="146" fill="url(#crestGlow)" opacity="0.12"/>
  <defs>
    <radialGradient id="crestGlow" cx="0" cy="0" r="1" gradientUnits="userSpaceOnUse" gradientTransform="translate(512 524) rotate(90) scale(190)">
      <stop stop-color="#9FD4AE"/>
      <stop offset="1" stop-color="#9FD4AE" stop-opacity="0"/>
    </radialGradient>
  </defs>
</svg>
