<svg width="1024" height="1024" viewBox="0 0 1024 1024" fill="none" xmlns="http://www.w3.org/2000/svg">
  <rect width="1024" height="1024" rx="232" fill="#121614"/>
  <path d="M268 468C312 350 403 284 490 284C546 284 597 309 638 355" stroke="#F3EBDD" stroke-width="56" stroke-linecap="round"/>
  <path d="M756 468C714 351 624 284 534 284C513 284 494 286 474 291" stroke="#F3EBDD" stroke-width="56" stroke-linecap="round"/>
  <path d="M512 474C571 474 634 522 634 595C634 679 563 742 512 782C461 742 390 679 390 595C390 522 453 474 512 474Z" fill="#C8A66A"/>
  <path d="M512 530L530 570L574 575L540 603L550 648L512 626L474 648L484 603L450 575L494 570L512 530Z" fill="#121614" opacity="0.88"/>
  <circle cx="512" cy="608" r="174" fill="url(#shelterMarkGlow)" opacity="0.12"/>
  <defs>
    <radialGradient id="shelterMarkGlow" cx="0" cy="0" r="1" gradientUnits="userSpaceOnUse" gradientTransform="translate(512 608) rotate(90) scale(210)">
      <stop stop-color="#9FD4AE"/>
      <stop offset="1" stop-color="#9FD4AE" stop-opacity="0"/>
    </radialGradient>
  </defs>
</svg>
