<svg xmlns="http://www.w3.org/2000/svg" viewBox="546 16 188 224"><path fill="#3D6345" d="M871.492 83.114c17.672.206 15.33 4.068 14.861 20.005-.246 14.718-.855 35.583.215 50.152 4.735.863 7.851.732 12.661.754 1.05 6.465 1.54 12.623 1.054 19.177-.477 6.418-.009 11.218-7.825 11.645a172 172 0 0 1-6.054.176c-1.286 13.032 5.155 24.369-15.971 22.847-5.242-.378-14.43.949-18.227-3.608-3.893-5.181 3.71-18.24-5.799-19.594-7.063-1.006-16.741-.318-23.948-.09-5.494.153-13.827 1.358-18.81-.282-8.888-2.924-5.235-23.889-2.725-30.179 8.227-14.573 18.242-28.819 27.077-43.15l4.99 5.574c-2.201.523-4.389 1.205-6.562 1.846.872.331 5.318 1.582 5.94 2.142.595.535-.638.845.748 2.851 2.524.559 3.01-.714 6.11-.902 1.355.777 1.778 1.019 3.273 1.618l.486-.596-.395-2.275c1.914-1.82 3.667-.669 4.914-2.292-.947-.974-3.013-1.836-4.324-2.477 1.925-1.849 3.245-2.7 3.824-5.205l-.563-.575c-2.255.377-3.6 1.343-5.599 2.468-1.016-4.846-.899-6.283-2.989-10.867-.972 3.328-1.79 7.358-2.572 10.791-2.106-1.257-3.98-2.708-5.953-4.164l3.015-5.391c1.557-1.535 11.018-16.758 13.164-19.993 3.115-.301 8.278-1.528 9.56 1.775-.433 1.858.048 1.149-1.413 2.254-2.639.193-1.715-1.14-4.056-.735-.01 1.589.682 1.89 1.864 3.504-.416 1.907-1.872.585-2.506 2.642 5.932 2.396 1.929 1.55 4.801 3.514l2.651-.573c3.189 1.08 2.778.98 4.686-1.498a30 30 0 0 0 2.472-.863l-.13-1.257c-1.114-.909-.797-.489-1.47-1.736.456-2.391 2-4.452 3.31-6.578-2.358 1.636-4.748 3.559-7.031 5.321-.244-1.984-.632-4.064-.965-6.043q7.106.075 14.211-.133"/><path fill="#3D6345" d="M154.041 86.543c16.129-5.227 29.939-6.433 45.538 1.485a55 55 0 0 1 5.262 2.992c4.669 4.645 6.695 6.728 10.286 12.143 8.806 20.032 8.403 30.544 8.4 51.864-2.423 19.05-5.197 36.016-22.511 47.332-19.29 9.102-39.75 8.864-57.035-4.737-12.57-9.889-15.21-26.652-16.829-41.627l.27-1.943c-3.609-15.614 1.981-36.435 7.89-50.937 4.643-7.566 10.705-12.845 18.729-16.572"/><path fill="#3D6345" d="M153.778 554.438c18.67-7.191 32.246-7.461 50.805.406 2.952 1.948 4.783 3.316 7.536 5.545 14.242 17.47 4.628 14.254-8.867 21.845.836 2.762 1.202 10.953.297 13.6 7.07 4.767 11.188 7.764 15.544 15.21 5.063 13.941 6.36 25.872-.062 39.732a63 63 0 0 1-4.932 8.645c-2.938 2.917-6.685 7.268-10.638 8.11.785-1.583 1.46-1.701 2.96-2.43l.249-.665c-2.853-3.39-1.265-4.002.816-7.954l-6.197 3.731c-.58-2.311-1.079-4.518-1.879-6.766-.898 2.049-1.498 4.077-3.163 5.449-3.496.324-.674-1.702-3.737-.038.144 3.603 4.33 2.115-.256 5.275 1.346 3.06 5.539 3.574 8.423 3.613l.444.556c-1.523 3.915-7.581 4.577-11.278 4.948-11.599 1.163-24.996 1.012-35.78-3.919l-.479-.224c-5.323-3.303-8.624-5.965-13.174-10.245-9.925-12.558-11.197-23.541-13.026-38.732 1.304-25.115-1.108-38.622 17.231-59.675 2.62-2.338 6.049-4.406 9.163-6.017"/><path fill="#3D6345" d="M358.552 96.579c15.547-15.65 30.969-16.285 51.903-12.849 11.504 3.686 20.305 8.49 25.533 20 6.522 20.144 2.457 33.614-10.945 49.501l-10.467 11.612c1.581 5.066 1.526 6.273.81 11.508 2.53-.001 5.92-.123 8.358.223 18.931.667 19.382-1.426 18.572 20.936-.101 2.809-1.002 6.288-3.252 8.118-10.953 3.478-65.04.654-80.602 1.447-2.74-.251-3.843-.596-6.302-1.707-.328-6.22-.189-12.188-.103-18.408l6.093-6.492c-.622-11.333-.248-15.583-.135-26.489-.112-9.89.631-18.619.666-28.27-13.642-3.111-8.068-13.028-4.211-22.387 1.422-2.814 2.322-4.157 4.082-6.743"/><path fill="#3D6345" d="m622.423 322.168.887-1.081c2.515-1.049 30.138-1.101 32.822-.099l.443-.118c2.685-.783 6.654.27 9.507.866.38 7.508.988 18.744-.13 26.015-9.434 4.684-47.87-2.671-49.491 5.362-.062.307-.052.623-.079.935a243 243 0 0 1-.388 9.15c14.997-1.663 30.911-2.599 43.362 7.479 10.814 8.753 13.808 21.234 12.421 34.605-1.602 7.989-3.099 11.976-7.416 18.833a54.6 54.6 0 0 1-24.605 15.897c-13.877 4.41-28.879 3.503-42.155-3.079-5.642-2.797-23.755-16.566-19.063-24.216 2.972-4.846 21.506-8.78 27.858-10.634 4.597 5.026 8.803 9.184 16.013 10.132 6.906.907 15.472-2.65 15.69-10.575.143-5.212-2.545-8.55-5.771-12.214-11.702-3.642-16.553-1.05-27.098 3.495-4.371-1.072-8.212-2.711-12.298-4.547 1.889-.311 4.02-.38 5.443-1.391a63 63 0 0 0-1.054-2.174c.89-1.242 1.008-1.281 1.492-2.7-.628-.801-1.65-1.341-2.594-1.673-2.416-.848-1.444-3.379-3.051-4.537-.809 4.178-.111 5.127-4.613 5.773-.683 2.015.588 2.208-.646 4.404l-.761-.175c-3.147-5.679 3.46-55.268 4.47-65.379 7.615-.222 15.75-.053 23.407-.017 3.255-.03 3.737-.214 6.841.872.561.553.434.257.557.791"/><path fill="#3D6345" d="M581.404 103.141c8.124-11.8 13.829-17.725 28.33-20.105 20.355-3.34 43.603-.205 52.428 20.829 4.09 17.147 1.215 23.743-10.177 36.52 5.491 4.616 10.233 8.216 13.618 14.73 3.741 11.806 3.971 19.885-.794 31.799-3.514 5.297-6.872 9.682-12.202 13.241-21.887 14.611-59.017 11.714-73.808-11.844-2.101-3.346-4.297-6.992-3.46-11.058 4.09-5.464 21.124-9.193 27.904-11.085 5.064 5.026 11.322 12.35 18.967 12.441 6.87.024 13.281-3.902 13.28-11.071-.002-16.726-19.357-7.696-26.617-14.428-2.786-2.583-1.066-16.636-.566-21.511 7.8-3.694 30.274-4.878 18.897-17.633-2.546-2.854-7.753-2.511-11.18-2.486-4.895 3.266-6.275 5.312-9.891 9.95-6.431-1.313-13.629-2.794-19.809-4.882-7.939-2.681-7.521-7.099-4.92-13.407"/><path fill="#3D6345" d="M355.176 560.024c.07-2.172.023-3.883 1.429-5.55 5.264-3.137 24.147-2.09 30.813-1.873l-1.313 6.442-5.223-3.965c1.156 2.077 1.648 2.973 2.489 5.171-.607 1.047-.686 1.091-1.556 1.898 2.786 4.322 10.215 4.924 11.965-.219l-1.124-1.194c-.31-1.631 1.02-3.01 2.088-4.853l-.441-.18c-1.612.74-2.592 1.615-4.159.736-.88-1.289-1.336-1.674-1.288-3.225 2.853-1.468 16.874-.31 21.214-.103 7.178.347 15.517-.559 22.149.022l.841.057c7.44-1.55 8.434 1.437 8.449 8.155.468-1.203.231-.895 1.091-1.709 4.571-1.316 13.496-.514 18.542-.281.35 16.061-.116 33.936-.138 50.134-11.701.902-23.234.591-34.941-.013-6.218 16.578-10.842 32.086-12.928 49.767a49 49 0 0 1-.563 5.486c-.398 2.528-1.522 5.177-3.753 6.626-3.76 2.444-24.448 1.966-29.402.768-1.247-.301-2.77-.658-3.419-1.866-4.553-8.471 10.01-49.427 14.093-59.044 3.831-9.022 9.381-17.051 12.07-26.57-10.299-1.105-19.113-1.118-29.485-1.167-.526-.91-1.066-1.46-1.741-2.264-1.644 1.129-5.782.474-7.589-.292l-1.98 2.267-1.845.82c-6.197-4.133-4.203-17.219-4.345-23.981"/><path fill="#3D6345" d="M153.512 326.033c8.108-.395 14.318-.943 22.242-2.547 5.098-1.032 13.892-3.768 18.666-3.98a4.34 4.34 0 0 1 3.018 1.016c3.231 2.712 2.213 24.829 2.258 30.048l.283 58.843c.04 5.942 1.024 23.322-1.874 27.354-5.617 3.784-29.067 2.763-37.016 2.735-2.801-4.918-4.092-9.466-2.656-15.211l.561 2.088c1.308.968 4.956-.482 6.758-.515l2.793.98c1.126-.758 1.091-1.388 1.753-2.867 2.042-1.669 2.708-.442 4.66-1.489-1.092-1.351-3.436-2.097-5.195-2.89 2.75-3.321 3.98-4.979 6.267-8.625-3.143 1.627-5.804 3.36-8.787 5.255-.82-4.906-1.472-8.181-2.772-12.969-1.657 4.509-2.17 7.509-2.868 12.209-1.245-.897-2.428-1.954-3.6-2.952l.171-16.647c1.513-2.635-.331-3.915 1.363-6.384 1.638-.575 2.406-.235 4.11.124-1.145-2.404-2.979-2.048-3.455-3.828l1.518-1.529c.262-2.329-1.013-2.895-1.51-5.916l-1.134-.342c-.588-1.29-.51-5.433-.641-7.251-.118-13.526 2.175-15.559-12.588-15.813-1.172-.725-2.521-1.59-3.11-2.862-2.808-6.067-1.261-19.333.212-25.478z"/><path fill="#3D6345" d="M158.174 395.869c-.133-7.555-.469-17.652.251-25.126.131 1.818.053 5.961.641 7.251l1.134.342c.497 3.021 1.772 3.587 1.51 5.916l-1.518 1.529c.476 1.78 2.31 1.424 3.455 3.828-1.704-.359-2.472-.699-4.11-.124-1.694 2.469.15 3.749-1.363 6.384"/><path fill="#3D6345" d="m361.366 583.185 1.98-2.267c1.807.766 5.945 1.421 7.589.292.675.804 1.215 1.354 1.741 2.264-4.054.031-7.29.064-11.31-.289"/><path fill="#3D6345" d="M810.937 608.895c-8.214-22.591-.892-48.814 23.461-57.545 2.916-1.045 6.32-2.381 9.437-1.963 1.052.897.67.38 1.043 1.654-1.886 3.525-4.425 1.28-3.568 5.247-.466.843-.718 1.213-.955 2.145 2.503 3.005 6.705 2.762 9.662.551 1.832-3.959-2.985-5.218-3.621-8.83l.442-.988c3.069-.927 9.129.043 12.45.414 19.805 2.21 33.938 13.663 39.506 32.957 9.785 33.903 2.215 85.282-40.446 90.241-15.771 1.834-31.185-1.488-42.707-13.082-7.554-9.826-8.649-14.508 4.156-17.878-1.02-3.061-1.461-18.479-.239-21.151-3.467-3.736-5.991-7.439-8.621-11.772"/><path fill="#3D6345" d="M872.739 559.763c1.493.114 1.769.339 3.134.926 1.569 2.813-.562 4.261-2.75 5.876l-.186 1.137c-1.276-.181-1.234-.173-2.402-.723-.961-2.969 2.042-3.937 2.204-7.216"/><path fill="#3D6345" d="M624.813 556.898c-1.861-2.131-5.042-4.394-5.244-7.11l.913-.625c21.356-1.159 45.28 6.122 47.416 31.003 1.076 12.531-3.474 19.058-11.186 28.234a282 282 0 0 1 8.098 8.024c9.521 15.382 9.886 26.414.069 41.917a31.5 31.5 0 0 1-4.222 4.607c-18.316 16.214-56.689 14.807-73.135-4.052-6.529-7.486-7.819-16.776-7.03-26.364.968-11.774 7.047-16.999 15.347-24.006-3.033-3.327-5.024-5.454-7.251-9.343a32.95 32.95 0 0 1-3.188-25.206c3.036-10.987 11.544-18.702 22.016-22.605 3.725-1.388 6.651-2.158 10.532-1.096.447 1.351-3.157 3.665-3.373 6.697.662 2.525 2.015 3.386 4.091 4.913l.527.382c2.289-2.682 2.835-3.221 5.62-5.37"/></svg>
