<?xml version="1.0" encoding="UTF-8"?>
<svg xmlns="http://www.w3.org/2000/svg" xmlns:xlink="http://www.w3.org/1999/xlink" width="100pt" height="100pt" viewBox="0 0 100 100" version="1.1">
<g id="surface124">
<path style=" stroke:none;fill-rule:nonzero;fill:rgb(0%,0%,0%);fill-opacity:1;" d="M 94 50 C 94 74.300781 74.300781 94 50 94 C 25.699219 94 6 74.300781 6 50 C 6 25.699219 25.699219 6 50 6 C 74.300781 6 94 25.699219 94 50 L 88 50 C 88 29.011719 70.988281 12 50 12 C 29.011719 12 12 29.011719 12 50 C 12 70.988281 29.011719 88 50 88 C 70.988281 88 88 70.988281 88 50 M 84 50 C 84 68.777344 68.777344 84 50 84 C 31.222656 84 16 68.777344 16 50 C 16 31.222656 31.222656 16 50 16 C 68.777344 16 84 31.222656 84 50 L 82 50 C 82 32.328125 67.671875 18 50 18 C 32.328125 18 18 32.328125 18 50 C 18 67.671875 32.328125 82 50 82 C 67.671875 82 82 67.671875 82 50 M 50 33.636719 L 66.363281 48.363281 L 66.363281 66.363281 L 33.636719 66.363281 L 33.636719 48.363281 Z M 50 33.636719 "/>
</g>
</svg>
