<?xml version="1.0" encoding="UTF-8"?>
<svg xmlns="http://www.w3.org/2000/svg" xmlns:xlink="http://www.w3.org/1999/xlink" width="100pt" height="100pt" viewBox="0 0 100 100" version="1.1">
<g id="surface224">
<path style=" stroke:none;fill-rule:nonzero;fill:rgb(0%,0%,0%);fill-opacity:1;" d="M 23.398438 25.5 L 47.898438 25.5 C 51.765625 25.5 54.898438 28.632812 54.898438 32.5 L 54.898438 50 C 54.898438 53.867188 51.765625 57 47.898438 57 L 23.398438 57 C 19.535156 57 16.398438 53.867188 16.398438 50 L 16.398438 32.5 C 16.398438 28.632812 19.535156 25.5 23.398438 25.5 Z M 29 57 L 23.398438 71 L 37.398438 57 Z M 54.898438 43 L 77.300781 43 C 80.78125 43 83.601562 45.820312 83.601562 49.300781 L 83.601562 64.699219 C 83.601562 68.179688 80.78125 71 77.300781 71 L 54.898438 71 C 51.421875 71 48.601562 68.179688 48.601562 64.699219 L 48.601562 49.300781 C 48.601562 45.820312 51.421875 43 54.898438 43 Z M 69.601562 71 L 76.601562 81.5 L 79.398438 71 Z M 69.601562 71 "/>
</g>
</svg>
