<?xml version="1.0" encoding="UTF-8"?>
<svg xmlns="http://www.w3.org/2000/svg" xmlns:xlink="http://www.w3.org/1999/xlink" width="100pt" height="100pt" viewBox="0 0 100 100" version="1.1">
<g id="surface24">
<path style=" stroke:none;fill-rule:nonzero;fill:rgb(0%,0%,0%);fill-opacity:1;" d="M 71 44.398438 C 71 59.089844 59.089844 71 44.398438 71 C 29.710938 71 17.800781 59.089844 17.800781 44.398438 C 17.800781 29.710938 29.710938 17.800781 44.398438 17.800781 C 59.089844 17.800781 71 29.710938 71 44.398438 L 64 44.398438 C 64 33.574219 55.226562 24.800781 44.398438 24.800781 C 33.574219 24.800781 24.800781 33.574219 24.800781 44.398438 C 24.800781 55.226562 33.574219 64 44.398438 64 C 55.226562 64 64 55.226562 64 44.398438 Z M 60.734375 65.683594 L 79.023438 83.976562 L 83.976562 79.023438 L 65.683594 60.734375 Z M 60.734375 65.683594 "/>
</g>
</svg>
