<?xml version="1.0" encoding="UTF-8"?>
<svg xmlns="http://www.w3.org/2000/svg" xmlns:xlink="http://www.w3.org/1999/xlink" width="100pt" height="100pt" viewBox="0 0 100 100" version="1.1">
<g id="surface143">
<path style=" stroke:none;fill-rule:nonzero;fill:rgb(0%,0%,0%);fill-opacity:1;" d="M 94 50 C 94 74.300781 74.300781 94 50 94 C 25.699219 94 6 74.300781 6 50 C 6 25.699219 25.699219 6 50 6 C 74.300781 6 94 25.699219 94 50 L 88 50 C 88 29.011719 70.988281 12 50 12 C 29.011719 12 12 29.011719 12 50 C 12 70.988281 29.011719 88 50 88 C 70.988281 88 88 70.988281 88 50 M 84 50 C 84 68.777344 68.777344 84 50 84 C 31.222656 84 16 68.777344 16 50 C 16 31.222656 31.222656 16 50 16 C 68.777344 16 84 31.222656 84 50 L 82 50 C 82 32.328125 67.671875 18 50 18 C 32.328125 18 18 32.328125 18 50 C 18 67.671875 32.328125 82 50 82 C 67.671875 82 82 67.671875 82 50 M 47.011719 38.046875 L 46.753906 32.980469 L 53.246094 32.980469 L 52.988281 38.046875 Z M 56.339844 39.433594 L 59.738281 35.671875 L 64.328125 40.261719 L 60.566406 43.660156 Z M 61.953125 47.011719 L 67.019531 46.753906 L 67.019531 53.246094 L 61.953125 52.988281 Z M 60.566406 56.339844 L 64.328125 59.738281 L 59.738281 64.328125 L 56.339844 60.566406 Z M 52.988281 61.953125 L 53.246094 67.019531 L 46.753906 67.019531 L 47.011719 61.953125 Z M 43.660156 60.566406 L 40.261719 64.328125 L 35.671875 59.738281 L 39.433594 56.339844 Z M 38.046875 52.988281 L 32.980469 53.246094 L 32.980469 46.753906 L 38.046875 47.011719 Z M 39.433594 43.660156 L 35.671875 40.261719 L 40.261719 35.671875 L 43.660156 39.433594 Z M 39.433594 43.660156 L 62.320312 50 C 62.320312 56.804688 56.804688 62.320312 50 62.320312 C 43.195312 62.320312 37.679688 56.804688 37.679688 50 C 37.679688 43.195312 43.195312 37.679688 50 37.679688 C 56.804688 37.679688 62.320312 43.195312 62.320312 50 M 54.621094 50 C 54.621094 43.839844 45.378906 43.839844 45.378906 50 C 45.378906 56.160156 54.621094 56.160156 54.621094 50 Z M 54.621094 50 "/>
</g>
</svg>
