<?xml version="1.0" encoding="UTF-8"?>
<svg xmlns="http://www.w3.org/2000/svg" xmlns:xlink="http://www.w3.org/1999/xlink" width="100pt" height="100pt" viewBox="0 0 100 100" version="1.1">
<g id="surface157">
<path style=" stroke:none;fill-rule:nonzero;fill:rgb(0%,0%,0%);fill-opacity:1;" d="M 81.5 50 C 81.5 67.398438 67.398438 81.5 50 81.5 C 32.601562 81.5 18.5 67.398438 18.5 50 C 18.5 32.601562 32.601562 18.5 50 18.5 C 67.398438 18.5 81.5 32.601562 81.5 50 M 78 50 C 78 34.535156 65.464844 22 50 22 C 34.535156 22 22 34.535156 22 50 C 22 65.464844 34.535156 78 50 78 C 65.464844 78 78 65.464844 78 50 Z M 50 27.949219 L 54.898438 50 L 50 72.050781 L 45.101562 50 Z M 50 27.949219 "/>
</g>
</svg>
