<?xml version="1.0" encoding="UTF-8"?>
<svg xmlns="http://www.w3.org/2000/svg" xmlns:xlink="http://www.w3.org/1999/xlink" width="100pt" height="100pt" viewBox="0 0 100 100" version="1.1">
<g id="surface100">
<path style=" stroke:none;fill-rule:nonzero;fill:rgb(0%,0%,0%);fill-opacity:1;" d="M 25.5 25.5 L 38.101562 25.5 L 38.101562 32.5 L 32.5 32.5 L 32.5 38.101562 L 25.5 38.101562 Z M 74.5 25.5 L 61.898438 25.5 L 61.898438 32.5 L 67.5 32.5 L 67.5 38.101562 L 74.5 38.101562 Z M 74.5 74.5 L 61.898438 74.5 L 61.898438 67.5 L 67.5 67.5 L 67.5 61.898438 L 74.5 61.898438 Z M 25.5 74.5 L 38.101562 74.5 L 38.101562 67.5 L 32.5 67.5 L 32.5 61.898438 L 25.5 61.898438 Z M 31.101562 47.898438 L 68.898438 47.898438 C 70.058594 47.898438 71 48.839844 71 50 C 71 51.160156 70.058594 52.101562 68.898438 52.101562 L 31.101562 52.101562 C 29.941406 52.101562 29 51.160156 29 50 C 29 48.839844 29.941406 47.898438 31.101562 47.898438 Z M 31.101562 47.898438 "/>
</g>
</svg>
