<?xml version="1.0" encoding="UTF-8"?>
<svg xmlns="http://www.w3.org/2000/svg" xmlns:xlink="http://www.w3.org/1999/xlink" width="100pt" height="100pt" viewBox="0 0 100 100" version="1.1">
<g id="surface105">
<path style=" stroke:none;fill-rule:nonzero;fill:rgb(0%,0%,0%);fill-opacity:1;" d="M 94 50 C 94 74.300781 74.300781 94 50 94 C 25.699219 94 6 74.300781 6 50 C 6 25.699219 25.699219 6 50 6 C 74.300781 6 94 25.699219 94 50 L 88 50 C 88 29.011719 70.988281 12 50 12 C 29.011719 12 12 29.011719 12 50 C 12 70.988281 29.011719 88 50 88 C 70.988281 88 88 70.988281 88 50 M 84 50 C 84 68.777344 68.777344 84 50 84 C 31.222656 84 16 68.777344 16 50 C 16 31.222656 31.222656 16 50 16 C 68.777344 16 84 31.222656 84 50 L 82 50 C 82 32.328125 67.671875 18 50 18 C 32.328125 18 18 32.328125 18 50 C 18 67.671875 32.328125 82 50 82 C 67.671875 82 82 67.671875 82 50 M 36.523438 36.523438 L 43.453125 36.523438 L 43.453125 40.375 L 40.375 40.375 L 40.375 43.453125 L 36.523438 43.453125 Z M 63.476562 36.523438 L 56.546875 36.523438 L 56.546875 40.375 L 59.625 40.375 L 59.625 43.453125 L 63.476562 43.453125 Z M 63.476562 63.476562 L 56.546875 63.476562 L 56.546875 59.625 L 59.625 59.625 L 59.625 56.546875 L 63.476562 56.546875 Z M 36.523438 63.476562 L 43.453125 63.476562 L 43.453125 59.625 L 40.375 59.625 L 40.375 56.546875 L 36.523438 56.546875 Z M 39.605469 48.84375 L 60.394531 48.84375 C 61.03125 48.84375 61.550781 49.363281 61.550781 50 C 61.550781 50.636719 61.03125 51.15625 60.394531 51.15625 L 39.605469 51.15625 C 38.96875 51.15625 38.449219 50.636719 38.449219 50 C 38.449219 49.363281 38.96875 48.84375 39.605469 48.84375 Z M 39.605469 48.84375 "/>
</g>
</svg>
