<?xml version="1.0" encoding="UTF-8"?>
<svg xmlns="http://www.w3.org/2000/svg" xmlns:xlink="http://www.w3.org/1999/xlink" width="100pt" height="100pt" viewBox="0 0 100 100" version="1.1">
<g id="surface148">
<path style=" stroke:none;fill-rule:nonzero;fill:rgb(0%,0%,0%);fill-opacity:1;" d="M 25.5 24.101562 L 74.5 24.101562 C 76.433594 24.101562 78 25.667969 78 27.601562 C 78 29.53125 76.433594 31.101562 74.5 31.101562 L 25.5 31.101562 C 23.566406 31.101562 22 29.53125 22 27.601562 C 22 25.667969 23.566406 24.101562 25.5 24.101562 Z M 25.5 46.5 L 74.5 46.5 C 76.433594 46.5 78 48.066406 78 50 C 78 51.933594 76.433594 53.5 74.5 53.5 L 25.5 53.5 C 23.566406 53.5 22 51.933594 22 50 C 22 48.066406 23.566406 46.5 25.5 46.5 Z M 25.5 68.898438 L 74.5 68.898438 C 76.433594 68.898438 78 70.46875 78 72.398438 C 78 74.332031 76.433594 75.898438 74.5 75.898438 L 25.5 75.898438 C 23.566406 75.898438 22 74.332031 22 72.398438 C 22 70.46875 23.566406 68.898438 25.5 68.898438 Z M 25.5 68.898438 L 46.5 27.601562 C 46.5 31.464844 43.367188 34.601562 39.5 34.601562 C 35.632812 34.601562 32.5 31.464844 32.5 27.601562 C 32.5 23.734375 35.632812 20.601562 39.5 20.601562 C 43.367188 20.601562 46.5 23.734375 46.5 27.601562 Z M 25.5 68.898438 L 67.5 50 C 67.5 53.867188 64.367188 57 60.5 57 C 56.632812 57 53.5 53.867188 53.5 50 C 53.5 46.132812 56.632812 43 60.5 43 C 64.367188 43 67.5 46.132812 67.5 50 Z M 25.5 68.898438 L 53.5 72.398438 C 53.5 76.265625 50.367188 79.398438 46.5 79.398438 C 42.632812 79.398438 39.5 76.265625 39.5 72.398438 C 39.5 68.535156 42.632812 65.398438 46.5 65.398438 C 50.367188 65.398438 53.5 68.535156 53.5 72.398438 Z M 25.5 68.898438 "/>
</g>
</svg>
