<?xml version="1.0" encoding="UTF-8"?>
<svg xmlns="http://www.w3.org/2000/svg" xmlns:xlink="http://www.w3.org/1999/xlink" width="100pt" height="100pt" viewBox="0 0 100 100" version="1.1">
<g id="surface138">
<path style=" stroke:none;fill-rule:nonzero;fill:rgb(0%,0%,0%);fill-opacity:1;" d="M 44.566406 28.269531 L 44.097656 19.058594 L 55.902344 19.058594 L 55.433594 28.269531 Z M 61.523438 30.792969 L 67.707031 23.945312 L 76.054688 32.292969 L 69.207031 38.476562 Z M 71.730469 44.566406 L 80.941406 44.097656 L 80.941406 55.902344 L 71.730469 55.433594 Z M 69.207031 61.523438 L 76.054688 67.707031 L 67.707031 76.054688 L 61.523438 69.207031 Z M 55.433594 71.730469 L 55.902344 80.941406 L 44.097656 80.941406 L 44.566406 71.730469 Z M 38.476562 69.207031 L 32.292969 76.054688 L 23.945312 67.707031 L 30.792969 61.523438 Z M 28.269531 55.433594 L 19.058594 55.902344 L 19.058594 44.097656 L 28.269531 44.566406 Z M 30.792969 38.476562 L 23.945312 32.292969 L 32.292969 23.945312 L 38.476562 30.792969 Z M 30.792969 38.476562 L 72.398438 50 C 72.398438 62.371094 62.371094 72.398438 50 72.398438 C 37.628906 72.398438 27.601562 62.371094 27.601562 50 C 27.601562 37.628906 37.628906 27.601562 50 27.601562 C 62.371094 27.601562 72.398438 37.628906 72.398438 50 M 58.398438 50 C 58.398438 45.359375 54.640625 41.601562 50 41.601562 C 45.359375 41.601562 41.601562 45.359375 41.601562 50 C 41.601562 54.640625 45.359375 58.398438 50 58.398438 C 54.640625 58.398438 58.398438 54.640625 58.398438 50 Z M 58.398438 50 "/>
</g>
</svg>
